<svg id="Layer_1" data-name="Layer 1" xmlns="http://www.w3.org/2000/svg" width="635" height="711" viewBox="0 0 635 711"><defs><style>.cls-1,.cls-3{fill:#231f20;}.cls-1,.cls-2,.cls-4,.cls-5{fill-rule:evenodd;}.cls-2,.cls-7{fill:#fff;}.cls-4,.cls-6{fill:#bdbbbc;}.cls-5{fill:#d3d2d2;}</style></defs><title>cbselogo_freelogovectors.net</title><path class="cls-1" d="M129.06,494.62c152,115.14,357.73,108.44,497.49-5.59l66,42.48c-154.28,223.59-495.24,226.94-635,0" transform="translate(-57.5 -19.5)"/><path class="cls-2" d="M376.12,22.85c164.34,0,297.37,136.39,297.37,304.07S540.46,631,376.12,631,78.74,494.62,78.74,326.92s133-304.07,297.38-304.07" transform="translate(-57.5 -19.5)"/><path class="cls-3" d="M368.29,19.5l-15.64,1.12-14.53,2.23-15.66,2.24-14.53,2.24L293.39,31.8,280,36.27l-14.54,4.47L252,47.44l-12.3,6.71-13.42,6.71L214,68.68l-12.28,7.83-11.18,8.94L179.37,95.51l-11.18,8.95-10.07,11.18-8.94,10.06L139.12,138l-7.83,11.18-8.94,12.3-6.71,13.42-7.83,12.29-5.59,13.42-6.71,14.52L91,228.55l-4.47,14.53-3.35,14.54-3.36,15.65L77.63,287.8l-1.12,15.66L75.39,319.1v15.65l1.12,15.65,1.12,15.66,2.23,15.65,3.36,14.53,3.35,14.54L91,425.31l4.47,14.54,6.71,13.41,5.59,13.41,7.83,13.41,6.71,12.3,8.94,12.3,7.83,12.3,10.06,11.18,8.94,11.18,10.07,10.06,11.18,10.06,11.18,8.95,11.18,8.93L214,585.17l12.3,7.82,13.42,7.83,12.3,6.71,13.41,5.59L280,617.59l13.41,4.47,14.54,4.47,14.53,3.36,15.66,2.23,14.53,1.12,15.64,1.12h15.65l15.66-1.12,14.53-1.12,15.65-2.23,14.54-3.36,14.53-4.47,13.41-4.47,14.53-4.47,13.42-5.59,12.3-6.71L525.92,593l12.3-7.82,12.3-7.83,11.18-8.93,11.18-8.95,11.18-10.06,10.06-10.06,9-11.18L613.13,517l7.83-12.3,8.93-12.3,6.71-12.3,7.82-13.41L650,453.26l5.59-13.41,5.59-14.54,4.48-14.53L669,396.24l3.35-14.53,2.24-15.65,1.12-15.66,1.12-15.65V319.1l-1.12-15.64-1.12-15.66-2.24-14.53L669,257.62l-3.35-14.54-4.48-14.53-5.59-13.42L650,200.61l-5.59-13.42L636.6,174.9l-6.71-13.42L621,149.18,613.13,138l-10.06-12.3-9-10.06-10.06-11.18-11.18-8.95L561.7,85.45l-11.18-8.94-12.3-7.83-12.3-7.82-13.41-6.71-12.3-6.71-13.42-6.7-14.53-4.47L458.85,31.8l-14.53-4.47-14.54-2.24-15.65-2.24L399.6,20.62,383.94,19.5h-7.82m0,6.71h7.82l14.54,1.12L413,28.44l15.66,2.24L442.08,34l14.54,3.36L470,41.86l13.42,5.58L496.85,53l13.42,5.59,12.3,7.83,12.3,6.7,11.18,8.95,12.3,7.82L568.41,100l11.18,8.94,10.06,11.18,8.94,10.06,8.95,11.18,8.94,11.18,7.83,12.3,7.81,12.3,6.71,13.42,5.59,12.3L650,217.37l5.59,13.42,4.48,14.53,3.35,13.42,2.24,15.65,2.23,14.53,2.24,14.54,1.12,15.64v15.65l-1.12,15.65-2.24,14.54-2.23,15.65-2.24,14.53-3.35,14.54-4.48,13.42L650,437.61,644.42,451l-5.59,13.41-6.71,12.29L624.31,489l-7.83,12.3-8.94,11.18-8.95,11.18-8.94,11.18-10.06,10.06L568.41,555l-10.06,9-12.3,8.93-11.18,7.83-12.3,7.82-12.3,6.71-13.42,5.59-13.41,6.71L470,612l-13.4,4.47-14.54,3.36-13.41,3.35L413,625.42l-14.53,2.23H353.77l-15.65-2.23-14.54-2.24-13.41-3.35-14.54-3.36L282.21,612l-14.53-4.47-12.3-6.71L242,595.23l-12.3-6.71-12.3-7.82-11.17-7.83-12.3-8.93-10.06-9-11.18-10.06L162.6,534.87l-8.95-11.18-8.94-11.18-9-11.18L127.94,489l-7.83-12.3-6.71-12.29L107.81,451l-5.59-13.42-5.59-14.53-4.47-13.42-3.35-14.54-3.36-14.53-2.23-15.65L82.1,350.4,81,334.75V319.1l1.12-15.64,1.12-14.54,2.23-14.53,3.36-15.65,3.35-13.42,4.47-14.53,5.59-13.42,5.59-14.52,5.59-12.3,6.71-13.42,7.83-12.3,7.82-12.3,9-11.18,8.94-11.18,8.95-10.06,10.06-11.18L183.84,100,193.9,89.92l12.3-7.82,11.17-8.95,12.3-6.7L242,58.62,255.38,53l12.3-5.59,14.53-5.58,13.42-4.47L310.17,34l13.41-3.35,14.54-2.24,15.65-1.11,14.52-1.12Z" transform="translate(-57.5 -19.5)"/><path class="cls-4" d="M376.12,132.41c105.08,0,190,87.2,190,194.51s-85,194.53-190,194.53-190-87.19-190-194.53,84.95-194.51,190-194.51" transform="translate(-57.5 -19.5)"/><path class="cls-3" d="M370.53,130.17h-8.94l-10.06,1.12-10.06,1.12-8.94,2.24-8.95,2.23-8.94,3.36-8.95,3.35-8.94,3.35-8.95,4.48L280,155.89l-7.83,4.47L264.33,166l-7.83,5.59-6.71,6.71-6.71,5.59-6.7,6.71-6.71,7.82-5.59,6.7-5.59,7.83-5.59,7.82-4.48,7.83L204,237.49l-4.47,8.95-3.35,7.82-3.36,10.07-2.23,8.94-3.36,8.94-1.11,10.07-2.24,10.06-1.12,10.05v30.19l1.12,10.06,2.24,8.94,1.11,10.07,3.36,8.94,2.23,10.06,3.36,9,3.35,8.94,4.47,7.83,4.46,8.94,4.48,7.83,5.59,7.82,5.59,7.83,5.59,7.83,6.71,6.7,6.7,6.7,6.71,6.71,6.71,5.59,7.83,5.59,7.82,5.59L280,498l7.82,4.47,8.95,4.48,8.94,3.35,8.95,3.35,8.94,3.36,8.95,2.23,8.94,2.24,10.06,1.12,10.06,1.12,8.94,1.11h10.06l10.06-1.11,10.06-1.12,10.07-1.12,8.94-2.24,8.95-2.23,8.94-3.36,8.94-3.35,8.95-3.35,8.94-4.48,7.82-4.47,7.82-4.47,7.83-5.59,7.83-5.59,6.7-5.59,6.71-6.71,6.71-6.7,6.71-6.7,5.59-7.83,5.59-7.83,5.59-7.82,4.47-7.83,4.47-8.94,4.48-7.83,3.35-8.94,3.35-9,2.24-10.06,3.35-8.94,1.12-10.07,2.24-8.94V342.58l1.12-10.07V322.45l-1.12-10.06V302.34l-2.24-10.06-1.12-10.07-3.35-8.94-2.24-8.94-3.35-10.07-3.35-7.82-4.48-8.95-4.47-8.94-4.47-7.83-5.59-7.82-5.59-7.83-5.59-6.7-6.71-7.82-6.71-6.71-6.71-5.59-6.7-6.71L487.91,166l-7.83-5.59-7.82-4.47-7.82-4.47-8.94-4.48-8.95-3.35-8.94-3.35-8.94-3.36-8.95-2.23-8.94-2.24-10.07-1.12-10.06-1.12H376.12m0,5.59h4.47l10.06,1.12h9l10.06,2.24,8.94,1.12,8.95,3.35,8.94,2.24,7.83,3.35,8.94,3.35,7.83,4.48,7.82,4.47,7.82,4.47,7.83,5.59,6.7,5.59,6.71,5.59,6.71,5.59,6.71,6.71,6.71,6.71,5.59,7.81,4.47,6.71,5.59,7.83,4.47,7.82,4.47,7.83,4.48,8.94,3.35,7.83,3.35,8.94,2.24,8.95,2.24,10.06,2.23,8.95,1.12,8.94,1.12,10.05v29.07l-1.12,10.06-1.12,9-2.23,10.06-2.24,8.94-2.24,8.95-3.35,8.94-3.35,7.83-4.48,8.94L538.22,422l-4.47,7.82-5.59,7.83-4.47,7.83-5.59,6.7-6.71,6.71-6.71,6.71L498,471.14l-6.71,6.71-6.7,5.59-7.83,4.47-7.82,4.47-7.82,4.47-7.83,4.48-8.94,3.35L436.49,508l-8.94,3.36-8.95,2.23-8.94,1.12L399.6,517l-9,1.12H361.59L352.65,517l-10.06-2.24-8.95-1.12-8.94-2.23L315.76,508l-7.83-3.35L299,501.33l-7.83-4.48-7.83-4.47-7.82-4.47-7.83-4.47L261,477.85l-7.82-6.71-5.59-5.58-6.71-6.71-6.71-6.71-5.59-6.7L223,437.61l-4.47-7.83L214,422l-4.47-7.83-4.46-8.94-3.35-7.83-3.36-8.94-2.23-8.95-2.24-8.94-2.23-10.06-1.12-9-1.12-10.06v-8.95l-1.12-5.59,1.12-4.47V312.39l1.12-10.05,1.12-8.94,2.23-8.95,2.24-10.06,2.23-8.95,3.36-8.94,3.35-7.83,4.46-8.94L214,231.9l4.48-7.82,4.47-7.83,5.59-6.71,5.59-7.81,6.71-6.71,6.71-6.71,5.59-5.59,7.82-5.59,6.71-5.59,7.83-5.59,7.82-4.47,7.83-4.47,7.83-4.48,8.94-3.35,7.83-3.35,8.94-2.24,8.94-3.35,8.95-1.12,10.06-2.24h8.94l10.06-1.12Z" transform="translate(-57.5 -19.5)"/><path class="cls-1" d="M632.12,370.53V360.47l-12.28-1.12L621,343.7v-1.12l-1.12-1.12-2.24-1.12h-1.12l-2.23,1.12-1.12,1.12L612,343.7l1.12,3.35c1.12,1.12,1.12,2.24,1.12,4.47a76.94,76.94,0,0,0-3.36,9c-1.11,1.11-2.23,1.11-4.47,2.23-1.12,0-2.23,1.12-4.47,0-5.59,0-8.94-3.35-11.18-8.94-1.12-1.12-1.12-3.36-1.12-4.47,1.12-2.24,1.12-4.48,3.36-6.71,1.11-2.24,4.47-6.71,8.94-11.18,2.24-2.24,4.47-3.36,5.59-3.36l3.35,3.36c-2.23,0-4.47,1.11-7.82,4.47-2.24,2.24-3.36,4.47-4.48,5.59-1.11,2.24-2.23,4.47-2.23,5.59a14.17,14.17,0,0,0,1.12,6.71l1.11,1.12c1.12,2.23,2.24,3.35,4.48,3.35h1.12c2.23,1.12,3.35,0,3.35-1.12s0-1.12,1.12-1.12V350.4l-1.12-2.23v-3.36a1.09,1.09,0,0,1-1.12-1.11,3.47,3.47,0,0,1,1.12-2.24l3.35-2.24c3.36-3.35,6.71-4.47,10.07-4.47,2.23,0,3.35,1.12,4.47,2.24l1.12,1.12v2.23l-1.12,13.42,7.81,1.12L634.36,328h6.71l-3.35,38,2.23-2.24,6.71-3.35c2.24,0,4.47-1.12,5.59,0a16.18,16.18,0,0,1,7.83,2.23c0,1.12,1.11,2.24,1.11,3.36a1.54,1.54,0,0,1,0,2.23c0,3.36-1.11,5.59-2.23,6.71h-1.12l-1.12,1.12L655.6,375v1.12L654.49,375l1.11-1.12v-1.12l1.12-1.11v-3.36l-2.23-2.23-1.12-1.12H648.9c-1.12-1.12-3.36,0-6.71,1.12l-3.36,2.23-1.11,1.12v1.12m-3.36-47h-1.12v-7.83l-49.18,4.48,4.47-6.71,43.59-3.36v-6.69h5.6l1.11,10.05,1.12-1.12,12.3-10.05v-1.12l1.12-2.23L652.25,290l7.83-4.47v16.77l-4.48,3.35L650,310.15l-2.23,1.12-2.24,1.12-1.12,1.12-2.23,2.23L640,316.86h-1.12l1.12,6.71ZM604.19,287.8,612,273.27h-1.12l-1.11-1.12L607.54,271H605.3a4.08,4.08,0,0,1-3.35,1.12c0,1.12-1.12,2.24-1.12,4.47v4.48Zm29,12.3V299l-1.12-5.59-48.06,10.06,3.35-6.71,13.42-3.35h-1.12l-1.12-1.12c-1.11-2.24-2.23-3.36-2.23-4.48l-1.12-3.35c-1.12-1.12-1.12-3.35-1.12-5.59,1.12-2.24,2.24-3.35,2.24-5.59,2.23-3.35,6.71-6.71,11.18-6.71,4.47-1.12,8.94,0,11.18,5.59,1.12,2.24,2.24,3.36,2.24,5.59,0,1.12,1.11,2.24,1.11,3.36v3.35l-5.59,4.47v-4.47l-1.11-2.24v-3.35l-1.12-2.24-9,13.42,2.24,2.24,22.35-4.48-6.7-29.06,5.58-1.12L638.83,299ZM574,172.66l2.23-1.12c0-1.12,1.12-1.12,1.12-2.24l-1.12-1.11L575.12,166c-1.12-1.12-2.24-2.24-3.36-2.24s-1.12,0-2.23,1.12h-1.12l-2.24,2.24-1.12,2.23v2.24l1.12,1.12,1.12,1.12h4.47C572.88,173.78,574,173.78,574,172.66Zm0,21.24h0l-3.36-1.12-2.23-2.23v-1.12l-2.24-2.24L565.05,185l-1.11-3.36-1.12-3.35H561.7l-3.35-1.12h-4.48a4.89,4.89,0,0,0-3.35,1.12,8.46,8.46,0,0,0-2.24,4.47V185l2.24,1.12,1.12,2.23,1.12-1.12,1.11-1.11h3.36c1.12,0,1.12,1.11,2.23,1.11,0,1.12,1.12,1.12,1.12,2.24v2.24c0,1.11,0,1.11-1.12,2.23L558.35,195a3.91,3.91,0,0,1-2.24,1.12h-2.24c0,1.12-1.11,0-2.23,0h-1.12L548.28,204l-4.47-2.23,4.47-8.95-2.23-3.35c-1.12-1.12-1.12-2.24-1.12-4.47-1.12-2.24-1.12-3.36,0-5.59s2.24-4.47,4.47-5.59c1.12-1.12,2.24-2.24,4.47-2.24a3.91,3.91,0,0,1,2.24-1.12h3.35l2.24,1.12v-1.12l1.12-3.35a8.42,8.42,0,0,1,1.12-4.47l3.35-3.36c0-1.12,1.12-1.12,2.24-1.12,2.23-1.11,3.35,0,5.59,1.12,1.11,1.12,2.23,1.12,3.35,2.24a8.46,8.46,0,0,1,2.24,4.47,27.78,27.78,0,0,1-1.12,9l-3.36,3.35c-1.11,1.12-3.35,1.12-4.47,2.24a4.09,4.09,0,0,1-3.35-1.12h-2.24l1.12,2.23,2.24,1.12,1.11,2.24,2.24,2.23,1.12,1.12,2.23,1.12,3.36,1.12Zm12.3-10.06h0l-3.36-6.71,2.24-5.59,5.59,9L602,197.26,612,214l-5.59,3.36v-1.12l-3.35-5.59L559.46,233l1.12-7.82,39.13-20.13-3.35-5.58L593,193.9l-41.37,24.59v-7.83l38-22.35Zm-51.43-42.49c2.23-2.23,3.35-4.47,3.35-6.7v-3.36c-1.12-1.12-1.12-2.23-2.23-3.35-1.12,0-1.12-1.12-2.24-1.12H530.4a1.1,1.1,0,0,0-1.12,1.12h-1.12a1.1,1.1,0,0,1-1.12,1.12c-1.12,1.11-1.12,2.23-1.12,4.47a10.08,10.08,0,0,0,1.12,5.59l2.24,2.23,2.23,3.36c0-1.12,0-1.12,1.12-1.12l1.12-1.12Zm2.23,5.59c-1.11,1.12-3.35,2.24-4.47,4.48-2.23,1.11-3.35,2.23-5.59,2.23-1.12,1.12-2.23,1.12-4.47,1.12s-3.36,1.12-5.59,0v3.35l-1.12,4.48v7.82l-5.59-1.12,1.12-3.35,1.12-4.47v-2.24l1.11-4.47-2.23-1.12c-1.12,0-1.12,0-2.24-1.12l-2.23-1.11a3.47,3.47,0,0,0-1.12-2.24v-3.35a4.11,4.11,0,0,1,1.12-3.36c1.11-1.12,2.23-1.12,4.47-1.12h2.23l2.24,1.12a6.15,6.15,0,0,1,3.35,5.59H527l2.24-1.12c-3.36-2.23-5.59-6.7-7.83-11.18-1.12-4.47-1.12-7.82,2.24-11.18q3.34-3.35,6.71-3.35c2.23,0,4.47,1.12,7.82,3.35,2.24,1.12,3.36,4.48,4.47,6.71C543.81,135.76,541.58,141.35,537.1,146.94Zm13.42-5.59-4.47-4.47,1.12-5.59L555,138l14.54,14.53-4.48,3.36v0l-5.59-5.59-34.65,33.54L523.69,176,555,145.83Zm-5.59-16.77h-3.35v-3.35c-2.24-6.71-4.48-12.3-9-16.77-2.23-3.35-3.35-4.47-5.59-5.59-1.12-1.12-2.23-1.12-3.35-2.24a4.11,4.11,0,0,0-3.36,1.12,6.16,6.16,0,0,0-5.59,3.36v6.7l7.83,3.36-3.36,5.59-6.7-4.47-24.6,40.24-3.35-6.7,22.36-35.78-4.48-3.35,3.36-4.48,5.59,3.36V98.87l1.12-2.24a15.35,15.35,0,0,1,3.35-4.47C517,91,518.1,91,520.33,91h3.36c2.23,0,3.35,1.12,4.47,2.24,2.24,1.12,3.35,2.23,5.59,4.47a42.22,42.22,0,0,1,5.59,9c1.12,1.11,1.12,2.23,2.24,3.35l2.23,7.83,1.12,3.35,1.12,2.24ZM385.06,91l-1.12-16.77H369.41V91ZM318,101.11,312.4,83.22,299,87.69l2.23,1.12c1.12,1.11,1.12,2.23,2.24,3.35l1.12,2.24c1.11,2.23,1.11,4.47,0,7.82l-2.24,2.24-1.12,1.12a1.1,1.1,0,0,0-1.12,1.12l-3.35,1.11,2.24,1.12c0,1.12,0,1.12,1.11,1.12,2.24,1.12,4.48,1.12,8.95,0h2.23l1.12-1.12,2.24-2.23,1.12-1.12,2.23-2.24ZM296.75,119h0c0,2.24-1.12,3.36-2.24,4.48a24.76,24.76,0,0,1-5.59,3.35,8.53,8.53,0,0,1-5.59,2.24,10.74,10.74,0,0,1-10.06-2.24,8.74,8.74,0,0,1-4.47-4.47l-1.12-2.24c0-1.12,0-1.12,1.12-2.23v-2.24l1.12-1.12H268.8l-3.36-1.12c-2.23,0-3.35-1.11-4.47-2.23-1.12,0-2.23-1.12-2.23-3.36-2.24-4.47-1.12-7.82,3.35-11.18,1.12,0,2.24-1.12,3.35-1.12,2.24,0,4.48,0,6.71,2.24a2.41,2.41,0,0,1,2.24,2.24c1.12,1.12,1.12,1.12,1.12,2.23l1.11,1.12-1.11,1.12v2.24l-6.71-2.24H271v-2.24c-1.11-2.23-2.23-2.23-4.47-1.11a2.39,2.39,0,0,0-2.23,2.23c0,1.12-1.12,2.24,0,2.24v2.23c1.11,1.12,2.23,2.24,3.35,2.24l1.12,1.12h4.47l1.12-1.12,1.12-1.12h1.11l1.12-1.12,7.83,2.24-2.24,1.12c-1.12,1.12-2.23,1.12-3.35,2.23l-2.24,2.24c-2.23,2.24-3.35,4.47-2.23,6.71l3.35,3.35,3.35-1.12,2.24-1.11c2.24,0,3.35-1.12,4.47-2.24,0-1.12,1.12-1.12,1.12-2.24a8.43,8.43,0,0,0,2.24-4.47c0-1.12,1.11-2.23,1.11-3.35ZM284.45,91h0l-8.94,5.59L271,92.16l11.18-5.59,45.84-12.3,6.71-1.12L333.64,72l-2.23-2.24-2.24-2.24V65.33c-1.12-2.24-1.12-3.36,0-4.47,0-2.24,1.12-3.36,2.24-4.48s2.23-1.11,3.35-2.23c1.12,0,2.24-1.12,4.47-1.12h6.71c2.24,0,5.59,1.12,11.18,3.35,1.12,0,2.24,1.12,3.36,1.12L367.17,62l3.36,1.12,2.23,2.24v1.12l-2.23,2.23c0-1.12-1.12-2.23-3.36-3.35a52.48,52.48,0,0,0-16.76-6.71c-3.35-1.12-6.7-1.12-8.94,0a4.08,4.08,0,0,0-3.35,1.12A2.41,2.41,0,0,0,335.88,62c-2.24,1.12-2.24,3.36-2.24,5.59l1.12,1.12,1.12,1.12L338.12,72l15.65-2.24,43.59-1.12L460,81l-1.12,4.47h-1.12v1.12L436.49,82.1l-3.35,13.41,3.35-1.11h5.59c2.24,0,3.36,1.11,4.47,2.23,2.24,1.12,3.36,4.48,4.48,7.83,0,2.24-1.12,3.35-1.12,4.47a16.15,16.15,0,0,1-2.24,7.83c-1.12,0-1.12,1.12-2.23,2.23-3.36,3.36-5.59,5.59-7.83,5.59L433.14,119a4.12,4.12,0,0,0,3.35-1.11c1.12,0,2.24-1.12,3.36-2.24,2.23-1.12,3.35-3.35,4.47-5.59,1.12-1.12,2.23-2.24,2.23-4.47v-2.24a3.88,3.88,0,0,0-1.11-2.23A3.47,3.47,0,0,0,443.2,100h-3.35a8.47,8.47,0,0,0-4.48,1.12l-1.11,1.11L432,103.34l-5.59,23.48-5.59-5.59,3.35-14.53H422l-4.47,1.11h-3.36c-1.12-1.11-2.23-1.11-4.47-2.23-2.24-2.24-3.36-4.47-4.47-9V92.16a24,24,0,0,1,3.35-5.59,3.91,3.91,0,0,0,2.24-1.12,14.15,14.15,0,0,1,6.71-1.12h2.23L422,85.45h1.12l2.23,6.71h-2.23L422,91H411.9a1.1,1.1,0,0,1-1.12,1.12,4.1,4.1,0,0,0-1.12,3.35c-1.12,2.24,0,3.36,1.12,4.48l1.12,1.12,2.23,1.11h3.36c1.11,0,2.23-1.11,5.59-1.11l1.11-1.12h2.24l4.47-20.13-33.54-5.59h-6.71l1.12,47-6.71-4.47V96.63l-15.65,1.12v3.36c0,1.11,0,2.23-2.24,2.23q-1.67,0-6.69-3.35c0-1.12-1.12-2.24-2.24-3.36a3.46,3.46,0,0,1-1.12-2.23c0-2.24,1.12-2.24,2.24-2.24h3.35V75.39h-8.94l-13.42,2.24,8.95,45.84-6.71-3.36-7.83-41.37-5.59,1.12L319.11,82.1l13.42,44.72-7.83-2.24-4.47-15.65-1.12,1.12a3.91,3.91,0,0,1-1.12,2.24l-2.23,1.11-1.12,1.12a1.1,1.1,0,0,0-1.12,1.12H312.4c-4.47,1.12-7.82,1.12-12.3-1.12-2.23-1.12-3.35-2.23-5.59-4.47l-3.35-6.71h2.23a1.1,1.1,0,0,1,1.12-1.12l2.24-1.11c2.24-2.24,2.24-3.36,2.24-5.6V93.28L297.87,91V89.92a1.09,1.09,0,0,1-1.12-1.11l-1.12-1.12ZM233,142.47l-12.3-13.41-11.18,10.06,11.18,12.3Zm-2.23-21.24h0l-5.59,4.47,33.54,34.66-7.83,1.12-14.53-15.65L225.2,155.89l2.23,3.35c1.12,1.12,2.24,2.24,1.12,3.36-2.24,1.11-4.47,1.11-7.83,1.11a8.5,8.5,0,0,1-4.47-1.11,3.91,3.91,0,0,1-2.24-1.12,2.11,2.11,0,0,1,0-3.36l2.24-2.23-11.17-12.3-6.71,5.59-4.47-3.35,33.53-29.07,21.24-13.42,3.36,4.47-6.71,4.48,26.83,39.13h-7.82l-24.6-35.78Zm-53.66,86.08-16.77-8.94-6.71,12.29h5.59l3.36,1.12a13.51,13.51,0,0,1,5.59,5.59v6.71l-1.12,2.23h3.35a14.82,14.82,0,0,0,6.71-5.59,3.44,3.44,0,0,0,1.12-2.23v-9Zm-45.84,38,3.36-7.83h-2.24a19.66,19.66,0,0,0-6.71,1.12c-5.59,1.12-8.94,3.36-10.06,5.59v3.36c0,1.11,0,2.23,2.24,3.35a3.87,3.87,0,0,0,2.23,1.12l3.36,1.12h4.47a1.1,1.1,0,0,1,1.12-1.12Zm12.3,41.37v1.11l-1.12,12.3,7.83,1.12a3.87,3.87,0,0,1,2.23,1.12v2.24l-1.11,1.11-5.59,4.46c-2.24,1.12-3.36,2.24-5.59,2.24h-3.36l-1.12-1.12v-1.12h-1.11V309L138,286.69ZM122.35,318v21.24h14.53L135.76,337c0-1.12-1.11-2.24-1.11-3.36l-1.12-2.23c0-2.24,1.12-3.36,1.12-4.48,1.11-2.23,4.47-4.47,7.82-5.59,1.12-1.11,3.36-1.11,4.47-1.11,3.36,0,5.59,0,7.83,1.11,1.12,0,2.24,1.12,3.35,1.12,4.48,2.24,6.71,3.36,7.83,5.59l-5.59,5.59a4.09,4.09,0,0,0-1.12-3.35,13.91,13.91,0,0,0-3.35-2.24c-2.24-1.12-3.36-2.23-5.59-2.23a12.14,12.14,0,0,0-5.59-1.12h-2.24a2.4,2.4,0,0,0-2.23,2.23v5.59c0,1.12,1.11,2.24,2.23,3.36l1.12,1.12,1.12,2.23,26.83-1.11-4.47,6.7H150.3l1.12,1.12v1.12l2.23,4.47v2.24c0,1.12,0,3.35-1.12,4.47a10.07,10.07,0,0,1-6.7,6.71c-1.12,1.12-3.36,1.12-4.48,1.12-2.23,0-4.47-1.12-6.7-2.24-1.12,0-1.12-1.12-2.24-1.12-1.12-2.23-2.24-4.47-2.24-5.59V350.4l5.59-2.23,1.12,1.12-1.12,2.23v1.12a4.08,4.08,0,0,0,1.12,3.35c0,1.12,1.12,2.24,2.24,4.48l1.12,1.11h2.23a8.52,8.52,0,0,0,5.59-2.23v-6.71c-1.12-1.12-1.12-2.24-2.23-4.47l-1.12-1.12-1.12-2.24H122.35l1.12,23.48h-5.59l-1.12-42.48h-2.24l-12.3,8.94a1.1,1.1,0,0,0-1.12,1.12L100,338.11l-1.12,8.94-6.71,3.35V339.22A3.44,3.44,0,0,0,93.28,337v-2.24c0-1.12,0-1.12,1.12-1.12l4.47-3.35,6.71-3.36,1.12-1.11,2.23-1.12,2.24-1.12,2.23-1.12,2.24-1.12h1.12V318l3.35-35.77,7.83-26.83-3.36,1.12c-2.23,0-3.35,1.12-4.47,1.12-2.23,0-3.35-1.12-4.47-1.12s-2.24-1.12-3.35-2.24c-1.12,0-1.12-1.11-2.24-2.23s-1.12-2.24-1.12-4.47a4.11,4.11,0,0,1,1.12-3.36c1.12-4.47,5.59-7.82,14.53-8.94,1.12,0,4.48-1.12,7.83-1.12h4.47l3.36-13.42h0L161.48,185l4.47,2.23h1.12l-3.36,5.59,42.49,23.47-7.83,2.24L185,211.78v6.71c-1.12,1.12-1.12,1.12-1.12,2.23v1.12c-2.24,3.36-5.59,5.59-10.06,7.83h-6.71a20.72,20.72,0,0,1-7.83-2.24l1.12-1.12c0-1.11,0-1.11,1.12-2.23v-3.36c0-1.11,0-3.35-2.24-4.47l-1.12-1.12L155.89,214h-1.12c-1.12,0-1.12-1.11-2.24,0h-1.11l-5.59,9-3.36,12.3L187.19,252l-6.7,4.47-40.25-15.65-3.36,6.71-3.35,10.06L144.71,261l-4.47,14.54v1.11l1.11,1.12,2.24,2.24,2.24,1.12a8.48,8.48,0,0,0,4.47,1.11,3.88,3.88,0,0,0,2.23-1.11c1.12,0,2.24-1.12,3.36-2.24,0-1.12,1.12-2.24,1.12-3.35v-5.59h-2.24c-2.24,0-3.35-1.12-3.35-2.24l-1.12-2.24v-2.23c0-1.12,1.12-1.12,1.12-2.24,1.11,0,1.11-1.12,2.23-1.12h4.47a3.91,3.91,0,0,1,2.24,1.12l2.24,2.24,1.11,1.12v1.11L180.49,261l-1.12,6.71-15.66,1.12V271l6.71,20.13-5.59,3.35-4.47-16.77V280l-4.47,2.23c-1.12,2.24-3.36,2.24-6.71,3.36h-6.71c-1.12-1.12-3.35-1.12-4.47-2.24l-2.24-2.23a4.14,4.14,0,0,1-1.11-3.36v-3.35L138,264.33l-5.59-1.12-6.71,20.12Z" transform="translate(-57.5 -19.5)"/><path class="cls-1" d="M339.23,553.87c0-1.11,0-1.11-1.11-2.23a84.67,84.67,0,0,0-15.66-12.3,64,64,0,0,0-7.82-4.47,4.11,4.11,0,0,0-3.36-1.12h-3.35c-2.24,1.12-3.35,2.24-3.35,3.35v1.12c0,1.12,0,1.12,1.11,2.24v2.23l1.12,1.12c2.24,1.12,4.47,1.12,6.71,2.24,6.71,2.23,14.53,4.47,21.24,6.71,2.24,0,3.36,0,4.47,1.11m90.55-3.35A33,33,0,0,0,441,548.28h1.12c1.12-1.11,3.36-1.11,5.59-2.23-1.12,0-1.12-1.12-2.23-1.12,0-1.12-2.24-2.24-3.36-3.35-4.47-3.36-7.82-4.48-11.18-3.36-1.12,0-2.23,1.12-3.35,1.12-1.12,1.12-1.12,2.24-2.24,3.35v3.36a1.1,1.1,0,0,0,1.12,1.12c0,1.11,0,1.11,1.12,2.23a1.1,1.1,0,0,0,1.12,1.12Zm-86.07,3.35h-1.12c4.47,1.12,7.82,1.12,12.3,2.24,11.17,1.12,22.35,1.12,33.53,1.12,8.94-1.12,19-2.24,27.95-3.36,3.35,0,6.71-1.11,10.06-2.23h-1.12a3.91,3.91,0,0,0-2.23-1.12c-1.12-1.12-2.24-2.24-2.24-3.35-1.12-1.12-1.12-2.24-2.24-2.24a3950.84,3950.84,0,0,0,2.24-6.71c1.12-1.12,2.24-2.23,3.35-2.23a4.11,4.11,0,0,1,3.36-1.12c5.59-1.12,10.06,0,15.65,3.35a24.08,24.08,0,0,0,5.59,4.47l2.24,2.24a20.67,20.67,0,0,0,7.82-2.24c0,1.12,1.12,2.24,1.12,3.36v1.12c-2.24,0-4.47,1.11-6.71,2.23,1.12,5.59,3.36,11.18,4.47,17.89,1.12,5.58,3.36,11.17,4.48,16.76h-7.83a93.48,93.48,0,0,0-4.47-16.76c-1.12-5.59-2.24-10.06-3.36-15.65a4.1,4.1,0,0,0-3.35,1.12H441c-2.23,1.11-4.47,1.11-6.7,2.23,2.23,5.59,3.35,12.3,4.47,17.88,1.12,6.71,2.23,13.42,3.35,19-2.23,0-5.59-1.12-7.82-1.12-1.12-4.47-1.12-7.83-2.24-11.18,0-3.36-1.12-6.71-1.12-10.05-1.12-1.12-3.35-1.12-6.71,0a4.13,4.13,0,0,0-3.35,1.11v2.23c0,2.23,0,5.59,1.12,7.83a16.15,16.15,0,0,1-7.83-2.24c0-1.12-1.12-3.36-1.12-5.59a4.08,4.08,0,0,0-3.35-1.12h-4.47a3.91,3.91,0,0,0-2.24,1.12c-1.12,0-2.24,0-2.24,1.12-1.11,0-1.11,0-1.11,1.11a1.1,1.1,0,0,0-1.12,1.12v2.24c0,2.24,1.12,4.47,5.59,6.71a15.39,15.39,0,0,0,4.47,3.35c2.24,1.12,3.36,2.24,5.59,2.24l6.71,3.35c-1.12,1.12-2.24,1.12-4.47,2.24a11.1,11.1,0,0,1-4.47-1.12c-1.12,0-1.12-1.12-2.24-1.12a23.34,23.34,0,0,1-6.71-4.47c-7.83-4.47-11.18-8.94-11.18-12.3v-4.47h-2.24c-1.11,1.12-1.11,1.12-2.23,1.12h-1.12a1.09,1.09,0,0,0-1.12,1.11l-1.12,1.12c0,3.36,1.12,5.59,1.12,8.95a54.25,54.25,0,0,1-7.82-3.36V575.1c-1.12,0-2.24-1.11-3.36-1.11s-2.23-1.12-3.35-1.12h-2.24c0,1.12-1.12,1.12-2.23,1.12h-2.23a1.09,1.09,0,0,1-1.12,1.11,3.91,3.91,0,0,0-1.12,2.24v2.24c-1.11,1.12,1.12,3.35,4.47,7.82,1.11,0,2.23,1.12,4.47,3.36a15.53,15.53,0,0,1,4.47,3.35l6.71,3.36c-1.12,1.11-2.24,1.11-3.36,2.23-1.11,0-3.35-1.12-5.59-2.23l-2.23-2.24c-2.24-1.12-3.36-2.24-5.59-4.47-6.7-5.59-10.05-11.18-10.05-14.54,0-2.23,1.11-4.47,3.35-6.69,1.12,0,2.24-1.12,3.35-1.12h8.94c1.12,0,2.23,1.12,3.35,1.12s2.24,1.11,3.36,1.11a1.09,1.09,0,0,0,1.11,1.11l1.12-1.11c1.12-1.11,2.24-1.11,4.47-1.11a4.11,4.11,0,0,1,3.36-1.12h1.12c2.23,1.12,3.35,1.12,5.59,2.23,1.11-1.11,2.23-2.23,3.35-2.23a10.06,10.06,0,0,1,5.59-1.12h1.12c1.12-1.12,1.12,0,2.23,0h3.36c1.12,0,2.24,1.12,3.35,1.12a1.1,1.1,0,0,1,1.12,1.12v-1.12c1.12-1.12,3.36-2.24,4.47-3.36a4.14,4.14,0,0,0,3.36-1.11h2.23c2.24,1.11,3.36,1.11,5.59,2.23,0-3.35-1.11-6.71-1.11-10.06-13.42,2.24-26.84,4.47-40.25,5.59-11.18,0-21.25,0-32.42-1.12h-2.23c-4.47-1.12-7.83-1.12-11.18-2.23,0,4.47-1.12,7.82-1.12,11.18-5.59-1.12-11.18-2.24-15.65-3.36a4.11,4.11,0,0,0-3.36-1.12,3.87,3.87,0,0,1-2.23,1.12,1.1,1.1,0,0,0-1.12,1.12c-1.12,1.12-1.12,1.12-1.12,2.24-1.12,2.22,0,4.46,2.24,6.69,1.12,2.24,4.47,3.36,7.82,4.48h4.48v-1.12c-1.12-1.12-1.12-1.12-1.12-2.24a1.1,1.1,0,0,0,1.12-1.12,1.09,1.09,0,0,1,1.11-1.12c1.12,0,1.12-1.11,2.24-1.11a4.11,4.11,0,0,1,3.35,1.11h2.24c1.12,1.12,1.12,1.12,1.12,2.24a1.1,1.1,0,0,1,1.12,1.12c1.11,1.12,1.11,1.12,1.11,2.24,0,2.23-1.11,3.35-3.35,4.47h-1.12l-1.12,1.12c3.36,3.35,5.59,6.7,8.95,10.06h-7.83c-1.12-3.36-3.35-6.71-4.47-10.06h-3.35c-1.12,0-1.12,0-2.24-1.12-2.24,0-4.47-1.12-7.83-2.24-3.35-2.23-5.59-5.59-7.82-8.94-1.12-2.24-2.24-5.58-1.12-8.94,0-2.23,1.12-3.35,2.24-4.47a4.08,4.08,0,0,1,3.35-1.12h3.35c4.48,1.12,7.83,2.24,12.3,3.36,0-1.12,1.12-3.36,1.12-5.59-7.83-1.12-14.53-3.36-22.36-5.59l-6.71-3.36a117.84,117.84,0,0,0-4.47,19c-2.24,5.58-3.35,12.29-4.47,17.88q-3.36-3.36-6.71-6.71c1.12-5.59,3.35-11.17,4.47-16.76s3.36-10.06,4.47-15.65a8.43,8.43,0,0,0-4.47-2.24c0-2.23,0-3.35,1.12-4.47,1.12,1.12,3.35,1.12,5.59,2.24a1.1,1.1,0,0,0-1.12-1.12v-2.24A3.46,3.46,0,0,1,300.1,536v-2.24c0-2.24,1.12-3.36,2.24-3.36,0-1.11,1.12-2.23,3.35-2.23h3.36a8.42,8.42,0,0,0,4.47,1.12l6.71,3.35c2.23,2.24,5.59,4.47,10.06,7.83,0,1.12,1.12,1.12,2.24,2.23,2.23,2.24,4.47,4.48,6.7,5.59,1.12,1.12,1.12,2.24,2.24,2.24l2.24,2.24Z" transform="translate(-57.5 -19.5)"/><path class="cls-3" d="M104.46,624.3l8.94,7.82,17.89,13.42,17.89,12.3L166,669l17.89,10.06,17.89,10.06L219.6,697l17.89,7.83,19,5.59L274.39,716l17.89,4.47,17.89,3.35,17.88,3.36,19,1.1,17.88,1.12,17.89-1.12,17.88-1.1,17.89-2.24,17.89-2.23,17.89-4.48,17.88-4.47,17.89-5.59,16.77-6.71,17.89-7.82,16.77-7.83,16.77-8.94,16.77-10.07,16.77-10.06,15.65-12.3,16.77-12.3L640,619.83l15.65-14.54,7.83-7.82-73.78-59.25-6.71,6.71L571.76,555l-11.18,9-12.3,8.93L536,580.7l-12.3,7.82-12.3,7.83-12.3,5.59-13.42,5.59-12.29,5.59L460,617.59l-13.42,3.35-12.29,3.36-13.42,3.35-13.42,1.12L394,629.89,380.59,631H366.06l-13.41-1.12-13.42-1.12-13.41-2.24-13.42-3.35L299,619.83l-13.42-4.48-13.42-4.47-13.41-5.59-12.3-6.71L233,591.88l-12.3-7.83-12.3-8.95L195,566.17l-12.3-10.06L176,550.52m0,2.24,5.59,4.47,12.3,10.06,13.42,8.93,12.28,8.95L231.9,593l13.42,7.83,13.42,5.59L272.15,612l13.42,5.59L299,622.06l13.41,3.36,13.42,2.23,13.41,2.24,13.42,2.23h13.41l14.53,1.12L394,632.12,407.42,631l13.42-2.24,13.42-2.24,13.41-3.35,13.42-3.35,13.4-4.48,12.3-5.59,13.42-5.59,12.3-6.7,12.3-6.71,12.29-7.83,12.3-7.83,12.3-8.93,11.18-10.06,11.18-10.06,5.59-4.47,70.43,55.89-6.71,6.7-14.54,14.54L623.19,631,606.42,643.3l-15.65,11.19L574,665.67l-16.77,10.06-16.77,8.94-16.77,7.83-16.77,6.71L489,705.91l-16.77,5.59L454.38,716l-17.89,4.47L418.6,723.8l-17.89,1.12-17.88,2.24H364.94L347.06,726l-17.89-1.12-17.89-2.23-19-4.48-17.89-3.35-17.89-5.59-17.89-6.71-17.89-7.83-17.87-7.82L185,678l-17.89-11.18L149.18,655.6l-16.77-12.3-17.89-13.41-7.82-6.71Z" transform="translate(-57.5 -19.5)"/><path class="cls-5" d="M176,551.64c129.68,114,295.13,102.85,413.64-11.18l72.66,57c-162.1,155.39-373.39,181.11-556.73,25.71" transform="translate(-57.5 -19.5)"/><path class="cls-3" d="M101.1,624.3l11.19,8.94,17.88,13.42L146.94,659l17.89,12.3,17.89,10.06,17.89,8.94,17.88,9,19,6.7,17.89,6.71,17.89,5.59,19,4.48L310.17,726l17.88,2.22,19,2.24h35.77l17.88-1.12,19-2.22,17.89-2.24,17.89-4.47L473.38,716l16.77-5.59L508,703.68l17.89-7.83L542.69,688l16.77-8.95L576.23,669,593,657.84l15.65-11.18,16.77-12.3,15.64-13.42,15.65-13.41,10.06-10.06L588.53,536l-6.71,6.7-11.18,10.07-12.29,10.06-11.18,8.93-12.3,7.83-12.3,7.82-12.3,6.71L498,600.82l-12.3,5.59-13.41,4.47L460,615.35l-13.42,4.48-13.41,2.23-13.42,3.36-13.42,1.11-13.41,1.12-12.3,1.12H366.06l-13.41-1.12-13.42-1.12-13.41-2.23-12.3-3.36-13.42-3.35-13.41-4.47-13.42-4.47-13.42-5.59-12.29-6.71-13.42-6.71-12.3-7.83L209.54,574l-12.28-10L185,553.87l-9-6.7m1.12,8.94,3.36,3.35,12.29,10.07,12.3,8.93,13.41,8.94,12.3,7.83,13.41,6.71,13.42,6.71L271,614.24l13.42,5.59,13.42,4.47,13.41,3.35,13.42,2.24,14.53,2.23,13.42,2.24H394l13.41-1.12L420.84,631l13.42-2.24,13.41-3.35,13.42-3.36,13.4-5.59L487.91,612l12.3-5.59,13.41-6.71,12.3-7.82,12.3-6.71,12.3-8.95,12.3-8.93L574,557.23l11.18-10.06,4.47-3.36,68.19,54.77-5.59,4.48L636.6,616.47,621,629.89l-15.66,12.3-15.65,11.18-16.77,10.06-16.77,10.06-16.77,9-16.77,7.82-16.77,7.83L489,703.68l-17.89,5.59-17.88,5.59-16.77,3.35-17.89,3.36-17.89,2.23-17.88,1.12H364.94l-17.88-1.12-17.89-1.11-17.89-2.24-17.89-3.36-17.88-4.47L257.62,707l-17.89-6.71-17.89-6.7-17.88-9-17.88-8.94-17.89-10.06-16.77-11.18-17.89-12.3-16.77-13.42-6.71-5.59Z" transform="translate(-57.5 -19.5)"/><path class="cls-1" d="M244.2,632.12l-12.3-6.7-5.59,11.18,1.12,1.11,1.12,1.12,1.12,1.12,1.12,1.12c1.11,0,2.23,1.12,4.47,1.12a4.09,4.09,0,0,0,3.35-1.12m112.92,33.54,1.12-13.42-12.3-1.11-2.23,13.41Zm30.18-12.3H375v38L370.53,697V662.31H357.12l-4.47,36.9-4.47-4.48,2.23-15.65L338.12,678v3.36c-1.12,1.12-1.12,1.12-2.24,1.12a6,6,0,0,1-4.47-3.36c-1.12-1.12-1.12-1.12-2.24-3.35v-2.24c0-1.12,0-1.12,1.12-1.12h3.35L334.76,659l-6.71-1.12v-4.47l34.66,4.47h19Zm51.43-5.59L419.72,659l2.24,12.3h3.35l1.12,1.11,2.24-1.11a4.1,4.1,0,0,0,3.35-1.12c1.12,0,2.24-1.12,3.35-2.24ZM498,692.5h0l-1.12,2.23-1.11-1.11-2.24-1.12-2.24-1.12L489,690.26l-4.47-3.35H481.2a16.38,16.38,0,0,0-3.35,2.23l-1.12,1.12-1.12,2.24L470,689.14l1.12-1.11,3.35-2.24,2.24-2.24,2.24-1.11a8.52,8.52,0,0,1,4.47,1.11c1.12,0,3.35,1.12,7.82,4.48,1.12,0,2.24,1.11,4.48,2.23Zm35.78-60.38L527,619.83l-11.18,5.59,6.71,12.29ZM567.29,612l-8.94-12.3-9,6.71,2.24,1.12c1.12,0,1.12,0,2.23,1.12l1.12,1.11c1.12,2.24,2.24,3.36,2.24,5.59a4.11,4.11,0,0,1-1.12,3.36v1.12a1.09,1.09,0,0,0-1.12,1.11l-1.12,1.12,1.12,1.12h1.12c2.24,0,4.47,0,6.71-2.24,1.12,0,1.12-1.11,2.23-1.11v-1.12l1.12-1.12,1.12-2.24V612Zm0-19h0l-4.47,3.36,23.48,31.3h-6.71l-7.83-11.18v2.24a3.91,3.91,0,0,0-1.12,2.23l-1.11,1.12-1.12,1.12-1.12,1.12c-2.24,2.23-5.59,2.23-10.06,2.23a8.41,8.41,0,0,1-4.47-2.23c-2.24-1.12-3.36-2.24-5.59-4.47h2.23a1.1,1.1,0,0,1,1.12-1.12l1.12-2.24c1.12-1.12,1.12-2.23,0-4.47l-1.12-1.12-1.12-1.12c0-1.11,0-1.11-1.12-1.11v-1.12h-1.11l-7.83,5.59-7.83,4.47,19,33.54L544.93,650,536,635.48l-11.18,6.71,2.23,2.23v2.24a7.12,7.12,0,0,1-6.71,0c-1.12,0-2.23-1.12-3.35-1.12-1.12-1.12-1.12-1.12-1.12-2.24-1.12,0-1.12-1.11,0-2.23L518.1,640l-6.71-12.3L506.92,631H505.8l-5.59,3.35L517,669l-6.71-2.24-14.53-31.3L487.91,640l7.83,16.77v1.12L494.62,659v1.12h-3.36L487.91,659c-3.35-2.24-5.59-3.36-5.59-4.47-1.12,0,0-1.12,1.12-1.12l3.35-2.24-3.35-10.06-8.95,4.47v-1.12L470,645.54l3.36,10.06L462.21,659l-1.12,1.12a3.87,3.87,0,0,0-1.12,2.23v3.36a8.78,8.78,0,0,0,4.47,4.47c1.12,1.12,3.36,1.12,5.58,1.12l2.24-1.12,1.12-1.12-1.12-1.12-1.12-1.12v-3.35l1.12-1.12,2.23-1.12h1.12c1.12,0,1.12,0,2.24,1.12l1.12,1.12,1.11,1.12V669L479,670.14v1.12l8.94,6.7-4.47,2.24-6.71-7.83-1.12,1.12-2.23,1.12h-4.47a10.15,10.15,0,0,1-7.82-3.35c-3.36-1.12-4.47-3.36-5.59-6.71-1.12-2.24-1.12-3.36,0-5.59,0-1.12,0-1.12,1.12-2.24a3.87,3.87,0,0,1,2.23-1.12l7.83-2.23-1.12-5.59-16.77,5.59-10.06,2.23,5.59,38-5.59-3.36-2.24-16.77-2.23,1.12a4.11,4.11,0,0,1-3.36,1.12h-5.59l-2.23-2.24L422,672.37v2.24l-1.12,2.24A3.48,3.48,0,0,0,418.6,678l-1.11,2.24,3.35,3.35,3.35,3.36,3.36,3.35,2.23,2.24a3.91,3.91,0,0,1,2.24,1.12l-3.35,2.23-3.36-3.35L422,689.14a8.3,8.3,0,0,1-3.36-3.35l-2.23-2.24c-3.36-4.47-5.59-6.7-6.71-10.06v-1.12a1.09,1.09,0,0,1,1.12-1.11l5.59-1.12-1.12-10.06-11.18,1.11v-4.47l43.6-7.83h-1.12l31.3-10.06,25.71-11.18h-1.12L536,609.76l29.06-20.12Zm-346.57,28h0l-3.35-1.11-1.12-1.12L195,651.13l-2.24-5.59L201.73,631h-2.24l-1.12-1.12q-3.35,0-3.35-3.36c-1.12,0-1.12-1.11-1.12-2.23l-1.12-1.12v5.59L191.67,631c-1.12,2.23-3.36,3.35-5.59,4.47h-5.59c-1.12-1.12-1.12-1.12-2.24-1.12-3.36-2.24-4.47-4.47-5.59-8.94V615.35c0-2.23,0-4.47,1.12-5.59a3.92,3.92,0,0,1,1.11-2.23h3.36A22.27,22.27,0,0,0,176,617.59c-1.12,2.24,0,4.47,0,6.71a8.76,8.76,0,0,0,4.48,4.47c1.11,1.12,3.35,1.12,4.47,1.12,1.12-1.12,2.23-1.12,3.35-2.24a1.1,1.1,0,0,1,1.12-1.12c0-1.11,1.12-2.23,1.12-3.35v-3.35h-2.24l-2.23-1.12-2.24-1.12V612l1.12,1.12a15.06,15.06,0,0,0,8.94,2.23l2.24-2.23c0-1.12,0-1.12,1.12-2.24a3.44,3.44,0,0,0-1.12-2.23c0-1.12,0-2.24-2.24-3.36h-1.12l-2.23-1.12c-2.24,0-3.36,0-4.47,1.12V599.7h6.7l1.12,1.12H195l2.24,2.24c2.23,3.35,3.35,5.59,2.23,8.94,0,2.24,0,3.35-1.12,4.47l-1.11,1.12c0,1.12,0,1.12-1.12,2.24h-3.36l1.12,2.23,1.12,1.12,1.12,1.12,1.12,1.12h1.11l1.12,1.11h5.59l6.7-11.18L204,612v-5.59l15.64,8.94,39.14,19L290,645.54v-1.12l4.47,1.12-5.59-11.18c0-1.12,0-1.12-1.12-1.12l-1.11-1.12-7.83-2.23-1.12-5.59,8.95,2.23h1.11l2.24,1.12h1.12l1.12,4.47,2.23,5.59,1.12,1.12v2.24l1.12,1.12v2.23l1.12,2.24,8.94,2.23-1.12,3.36h-1.11v1.12L299,651.13,287.8,688l-3.35-4.48L293.39,650l-2.23-1.12V650H290l-5.59-2.23-14.53,35.77-3.36-4.47,8.95-22.36-12.3-4.47H261l-1.12,1.12c-1.11,0-1.11,0-1.11,1.12l-1.12,1.11a10.08,10.08,0,0,0-1.12,5.59,14.15,14.15,0,0,0,1.12,6.71l1.12,3.36c0,1.11,1.11,2.23,2.23,4.47H256.5c0-1.12-1.12-1.12-1.12-3.36l-1.12-5.59a22,22,0,0,1-1.11-7.82c0-3.36,0-4.47,1.11-6.71,0-1.12,1.12-2.24,2.24-3.36a1.09,1.09,0,0,1,1.12-1.11l1.12-1.12h3.35l15.65,5.59,2.24-5.59-22.36-8.95-9-3.35L231.9,667.9l-3.35-5.59,7.83-15.65h-2.24a4.08,4.08,0,0,1-3.35-1.12h-1.12l-3.36-3.35L225.2,640v-2.24l-1.12,1.12L221.84,640c0,1.12-1.12,1.12-2.24,1.12l-2.23,1.12v3.35l1.12,5.59,1.11,5.59V659c1.12,1.12,1.12,1.12,1.12,2.23h-4.47v-4.47c0-1.12-1.12-3.35-1.12-4.47a12.12,12.12,0,0,0-1.12-5.59V643.3c0-4.47,0-7.82,1.12-11.18l1.12-1.11h1.12l5.59,2.23,4.47-8.94Z" transform="translate(-57.5 -19.5)"/><path class="cls-1" d="M174.89,438.73c7.83,0,13.42,5.59,13.42,13.41s-5.59,14.53-13.42,14.53-13.41-6.7-13.41-14.53,5.59-13.41,13.41-13.41" transform="translate(-57.5 -19.5)"/><path class="cls-1" d="M572.88,438.73c7.83,0,13.42,5.59,13.42,13.41s-5.59,14.53-13.42,14.53-13.42-6.7-13.42-14.53,5.59-13.41,13.42-13.41" transform="translate(-57.5 -19.5)"/><polyline class="cls-3" points="219.12 301.83 221.36 298.48 190.05 286.19 231.42 276.13 231.42 272.78 192.29 254.89 231.42 260.48 233.66 256.01 207.94 238.12 247.07 240.35 213.53 201.22 250.43 226.94 253.78 223.58 238.13 194.51 268.32 211.28 271.67 209.05 259.37 168.81 281.73 203.46 285.09 202.34 283.97 172.17 302.98 198.99 307.44 197.87 315.26 147.57 318.62 196.75 321.97 197.87 334.27 168.81 338.74 201.22 342.1 202.34 368.93 165.46 353.27 205.69 356.63 207.93 378.99 188.93 370.05 225.82 413.64 200.1 383.46 230.29 385.7 233.65 413.64 225.82 389.05 251.53 391.29 254.89 440.47 251.53 396.88 266.07 396.88 270.54 439.35 276.13 398 292.89 399.12 297.36 448.3 276.13 448.3 272.78 406.94 267.19 458.36 250.42 457.24 245.94 396.88 250.42 422.58 222.47 420.35 219.11 392.41 226.94 429.29 191.16 425.94 187.81 376.75 215.76 385.7 183.35 382.34 181.11 359.98 198.99 378.99 150.92 374.52 148.69 342.1 195.63 337.62 159.87 333.15 159.87 321.97 187.81 318.62 126.33 314.14 126.33 304.09 191.16 283.97 164.34 279.5 165.46 280.61 194.51 254.9 153.16 250.43 154.28 264.96 205.69 233.66 186.69 230.3 190.04 245.96 217.99 201.23 187.81 199 191.16 237.01 234.76 200.12 232.53 199 237 223.59 254.89 176.64 248.18 175.52 251.53 224.71 273.89 181.11 283.96 181.11 288.43"/><path class="cls-2" d="M368.29,259.85c22.36,0,40.25,6.71,40.25,15.66s-17.89,15.65-40.25,15.65c-21.23,0-40.24-6.71-40.24-15.65s19-15.66,40.24-15.66" transform="translate(-57.5 -19.5)"/><path class="cls-3" d="M364.94,257.62H356l-6.7,1.12L342.59,261,337,263.21l-4.47,3.35-4.48,2.24-1.11,4.47-1.12,2.24,1.12,2.23,1.11,3.36,4.48,3.35L337,287.8l5.59,2.24,6.71,2.24,6.7,1.12h24.59l7.83-1.12,6.7-2.24,5.59-2.24,4.48-3.35,3.35-3.35,2.24-3.36v-4.47l-2.24-4.47-3.35-2.24-4.48-3.35L395.12,261l-6.7-2.23-7.83-1.12h-12.3m0,4.47h12.3l6.71,1.12,6.71,2.23,4.47,2.24,4.47,2.24,2.24,2.23,1.11,2.24v2.23l-1.11,2.24L403,281.1l-4.47,2.23L394,285.57l-6.71,2.23-6.71,1.12H357.12l-6.71-1.12-6.7-2.23-5.59-2.24-3.36-2.23-2.23-2.24-2.24-2.24h1.12l-1.12-1.11,1.12-1.12h-1.12l2.24-2.24,2.23-2.23,3.36-2.24,5.59-2.24,6.7-2.23,6.71-1.12h11.17Z" transform="translate(-57.5 -19.5)"/><polyline class="cls-3" points="354.39 254.89 349.92 256.01 349.92 264.95 348.8 270.54 345.45 276.13 340.98 281.72 336.5 286.19 329.8 289.54 323.09 292.89 315.26 294.01 307.44 294.01 299.62 292.89 292.91 289.54 286.2 286.19 280.61 281.72 276.14 276.13 273.91 270.54 272.79 264.95 271.67 261.6 271.67 258.24 272.79 254.89 268.32 254.89 267.2 257.13 267.2 262.71 268.32 266.07 269.43 271.66 272.79 278.37 277.26 285.07 283.97 289.54 290.68 294.01 298.5 296.24 306.33 298.48 315.26 298.48 324.21 296.24 332.03 294.01 338.74 289.54 344.33 285.07 348.8 278.37 352.16 271.66 354.39 266.07 354.39 257.13"/><path class="cls-3" d="M264.33,464.44l8.94-1.12,12.3-2.23L299,460h36.89l19,2.24,15.64,2.23v-142l-8.94-2.23L349.3,318l-13.42-1.12-12.3-1.12-13.41-1.11-12.3,1.11L284.45,318l-12.3,2.24-7.82,2.23m4.47,3.36,4.47-1.12,12.3-3.36,12.3-1.11,12.3-1.12,13.41,1.12h12.3l12.3,2.23,13.41,2.24,4.47,1.12V460L356,457.73l-19-2.23H297.87l-12.3,1.12-13.42,2.23L268.8,460Z" transform="translate(-57.5 -19.5)"/><path class="cls-2" d="M266.56,324.69c33.54-11.18,67.08-8.95,101.73,0V462.21c-33.53-5.59-67.07-7.83-101.73,0" transform="translate(-57.5 -19.5)"/><path class="cls-3" d="M264.33,464.44l8.94-1.12,12.3-2.23L299,460h36.89l19,2.24,15.64,2.23v-142l-8.94-2.23L349.3,318l-13.42-1.12-12.3-1.12-13.41-1.11-12.3,1.11L284.45,318l-12.3,2.24-7.82,2.23m4.47,3.36,4.47-1.12,12.3-3.36,12.3-1.11,12.3-1.12,13.41,1.12h12.3l12.3,2.23,13.41,2.24,4.47,1.12V460L356,457.73l-19-2.23H297.87l-12.3,1.12-13.42,2.23L268.8,460Z" transform="translate(-57.5 -19.5)"/><path class="cls-2" d="M388.42,324.69c33.54-10.06,68.2-7.83,101.73,0V463.32c-32.42-5.59-67.07-7.82-101.73,0" transform="translate(-57.5 -19.5)"/><path class="cls-3" d="M386.18,465.56l10.06-1.12,12.3-2.23,12.3-1.12L434.26,460l12.29,1.12h12.3l19,2.23,14.53,2.24v-142l-7.82-2.24-12.3-2.23-13.41-2.24-12.3-1.12H433.14l-12.3,1.12L407.42,318l-12.3,3.35-8.94,2.24m4.47,3.35,5.59-1.11,12.3-3.36,12.3-1.12,12.3-1.11h12.3l13.41,1.11,12.29,2.24,12.3,2.24,4.47,1.11V460l-10.06-1.12-19-2.23h-12.3l-12.29-1.12-13.42,1.12-12.3,1.11L395.12,460h-4.47Z" transform="translate(-57.5 -19.5)"/><rect class="cls-6" x="308.55" y="305.2" width="22.36" height="138.63"/><path class="cls-3" d="M386.18,461.09H368.29V326.92h17.89m4.47-4.47H363.83V465.56h26.82Z" transform="translate(-57.5 -19.5)"/><rect class="cls-3" x="220.24" y="314.13" width="13.42" height="1.12"/><rect class="cls-3" x="240.37" y="314.13" width="14.53" height="1.12"/><rect class="cls-3" x="261.61" y="314.13" width="13.42" height="1.12"/><rect class="cls-3" x="281.73" y="314.13" width="14.53" height="1.12"/><rect class="cls-3" x="220.24" y="321.96" width="13.42" height="2.24"/><rect class="cls-3" x="240.37" y="321.96" width="14.53" height="2.24"/><rect class="cls-3" x="261.61" y="321.96" width="13.42" height="2.24"/><rect class="cls-3" x="281.73" y="321.96" width="14.53" height="2.24"/><rect class="cls-3" x="220.24" y="329.79" width="13.42" height="2.24"/><rect class="cls-3" x="240.37" y="329.79" width="14.53" height="2.24"/><rect class="cls-3" x="261.61" y="329.79" width="13.42" height="2.24"/><rect class="cls-3" x="281.73" y="329.79" width="14.53" height="2.24"/><rect class="cls-3" x="220.24" y="337.61" width="13.42" height="2.24"/><rect class="cls-3" x="240.37" y="337.61" width="14.53" height="2.24"/><rect class="cls-3" x="261.61" y="337.61" width="13.42" height="2.24"/><rect class="cls-3" x="281.73" y="337.61" width="14.53" height="2.24"/><rect class="cls-3" x="220.24" y="345.44" width="13.42" height="2.24"/><rect class="cls-3" x="240.37" y="345.44" width="14.53" height="2.24"/><rect class="cls-3" x="261.61" y="345.44" width="13.42" height="2.24"/><rect class="cls-3" x="281.73" y="345.44" width="14.53" height="2.24"/><rect class="cls-3" x="220.24" y="353.26" width="13.42" height="2.24"/><rect class="cls-3" x="240.37" y="353.26" width="14.53" height="2.24"/><rect class="cls-3" x="261.61" y="353.26" width="13.42" height="2.24"/><rect class="cls-3" x="281.73" y="353.26" width="14.53" height="2.24"/><rect class="cls-3" x="220.24" y="362.21" width="13.42" height="1.12"/><rect class="cls-3" x="240.37" y="362.21" width="14.53" height="1.12"/><rect class="cls-3" x="261.61" y="362.21" width="13.42" height="1.12"/><rect class="cls-3" x="281.73" y="362.21" width="14.53" height="1.12"/><rect class="cls-3" x="220.24" y="370.03" width="13.42" height="1.12"/><rect class="cls-3" x="240.37" y="370.03" width="14.53" height="1.12"/><rect class="cls-3" x="261.61" y="370.03" width="13.42" height="1.12"/><rect class="cls-3" x="281.73" y="370.03" width="14.53" height="1.12"/><rect class="cls-3" x="220.24" y="377.86" width="13.42" height="2.24"/><rect class="cls-3" x="240.37" y="377.86" width="14.53" height="2.24"/><rect class="cls-3" x="261.61" y="377.86" width="13.42" height="2.24"/><rect class="cls-3" x="281.73" y="377.86" width="14.53" height="2.24"/><rect class="cls-3" x="220.24" y="385.69" width="13.42" height="2.24"/><rect class="cls-3" x="240.37" y="385.69" width="14.53" height="2.24"/><rect class="cls-3" x="261.61" y="385.69" width="13.42" height="2.24"/><rect class="cls-3" x="281.73" y="385.69" width="14.53" height="2.24"/><rect class="cls-3" x="220.24" y="393.52" width="13.42" height="2.23"/><rect class="cls-3" x="240.37" y="393.52" width="14.53" height="2.23"/><rect class="cls-3" x="261.61" y="393.52" width="13.42" height="2.23"/><rect class="cls-3" x="281.73" y="393.52" width="14.53" height="2.23"/><rect class="cls-3" x="220.24" y="401.34" width="13.42" height="2.24"/><rect class="cls-3" x="240.37" y="401.34" width="14.53" height="2.24"/><rect class="cls-3" x="261.61" y="401.34" width="13.42" height="2.24"/><rect class="cls-3" x="281.73" y="401.34" width="14.53" height="2.24"/><rect class="cls-3" x="220.24" y="409.17" width="13.42" height="2.24"/><rect class="cls-3" x="240.37" y="409.17" width="14.53" height="2.24"/><rect class="cls-3" x="261.61" y="409.17" width="13.42" height="2.24"/><rect class="cls-3" x="281.73" y="409.17" width="14.53" height="2.24"/><rect class="cls-3" x="220.24" y="418.11" width="13.42" height="1.12"/><rect class="cls-3" x="240.37" y="418.11" width="14.53" height="1.12"/><rect class="cls-3" x="261.61" y="418.11" width="13.42" height="1.12"/><rect class="cls-3" x="281.73" y="418.11" width="14.53" height="1.12"/><rect class="cls-3" x="220.24" y="425.94" width="13.42" height="2.24"/><rect class="cls-3" x="240.37" y="425.94" width="14.53" height="2.24"/><rect class="cls-3" x="261.61" y="425.94" width="13.42" height="2.24"/><rect class="cls-3" x="281.73" y="425.94" width="14.53" height="2.24"/><rect class="cls-3" x="344.33" y="313.01" width="14.53" height="2.24"/><rect class="cls-3" x="364.46" y="313.01" width="14.53" height="2.24"/><rect class="cls-3" x="385.7" y="313.01" width="13.42" height="2.24"/><rect class="cls-3" x="405.82" y="313.01" width="14.53" height="2.24"/><rect class="cls-3" x="344.33" y="321.96" width="14.53" height="1.12"/><rect class="cls-3" x="364.46" y="321.96" width="14.53" height="1.12"/><rect class="cls-3" x="385.7" y="321.96" width="13.42" height="1.12"/><rect class="cls-3" x="405.82" y="321.96" width="14.53" height="1.12"/><rect class="cls-3" x="344.33" y="329.79" width="14.53" height="1.12"/><rect class="cls-3" x="364.46" y="329.79" width="14.53" height="1.12"/><rect class="cls-3" x="385.7" y="329.79" width="13.42" height="1.12"/><rect class="cls-3" x="405.82" y="329.79" width="14.53" height="1.12"/><rect class="cls-3" x="344.33" y="337.61" width="14.53" height="2.24"/><rect class="cls-3" x="364.46" y="337.61" width="14.53" height="2.24"/><rect class="cls-3" x="385.7" y="337.61" width="13.42" height="2.24"/><rect class="cls-3" x="405.82" y="337.61" width="14.53" height="2.24"/><rect class="cls-3" x="344.33" y="345.44" width="14.53" height="2.24"/><rect class="cls-3" x="364.46" y="345.44" width="14.53" height="2.24"/><rect class="cls-3" x="385.7" y="345.44" width="13.42" height="2.24"/><rect class="cls-3" x="405.82" y="345.44" width="14.53" height="2.24"/><rect class="cls-3" x="344.33" y="353.26" width="14.53" height="2.24"/><rect class="cls-3" x="364.46" y="353.26" width="14.53" height="2.24"/><rect class="cls-3" x="385.7" y="353.26" width="13.42" height="2.24"/><rect class="cls-3" x="405.82" y="353.26" width="14.53" height="2.24"/><rect class="cls-3" x="344.33" y="361.09" width="14.53" height="2.24"/><rect class="cls-3" x="364.46" y="361.09" width="14.53" height="2.24"/><rect class="cls-3" x="385.7" y="361.09" width="13.42" height="2.24"/><rect class="cls-3" x="405.82" y="361.09" width="14.53" height="2.24"/><rect class="cls-3" x="344.33" y="370.03" width="14.53" height="1.12"/><rect class="cls-3" x="364.46" y="370.03" width="14.53" height="1.12"/><rect class="cls-3" x="385.7" y="370.03" width="13.42" height="1.12"/><rect class="cls-3" x="405.82" y="370.03" width="14.53" height="1.12"/><rect class="cls-3" x="344.33" y="377.86" width="14.53" height="1.12"/><rect class="cls-3" x="364.46" y="377.86" width="14.53" height="1.12"/><rect class="cls-3" x="385.7" y="377.86" width="13.42" height="1.12"/><rect class="cls-3" x="405.82" y="377.86" width="14.53" height="1.12"/><rect class="cls-3" x="344.33" y="385.69" width="14.53" height="2.24"/><rect class="cls-3" x="364.46" y="385.69" width="14.53" height="2.24"/><rect class="cls-3" x="385.7" y="385.69" width="13.42" height="2.24"/><rect class="cls-3" x="405.82" y="385.69" width="14.53" height="2.24"/><rect class="cls-3" x="344.33" y="393.52" width="14.53" height="2.23"/><rect class="cls-3" x="364.46" y="393.52" width="14.53" height="2.23"/><rect class="cls-3" x="385.7" y="393.52" width="13.42" height="2.23"/><rect class="cls-3" x="405.82" y="393.52" width="14.53" height="2.23"/><rect class="cls-3" x="344.33" y="401.34" width="14.53" height="2.24"/><rect class="cls-3" x="364.46" y="401.34" width="14.53" height="2.24"/><rect class="cls-3" x="385.7" y="401.34" width="13.42" height="2.24"/><rect class="cls-3" x="405.82" y="401.34" width="14.53" height="2.24"/><rect class="cls-3" x="344.33" y="409.17" width="14.53" height="2.24"/><rect class="cls-3" x="364.46" y="409.17" width="14.53" height="2.24"/><rect class="cls-3" x="385.7" y="409.17" width="13.42" height="2.24"/><rect class="cls-3" x="405.82" y="409.17" width="14.53" height="2.24"/><rect class="cls-3" x="344.33" y="416.99" width="14.53" height="2.24"/><rect class="cls-3" x="364.46" y="416.99" width="14.53" height="2.24"/><rect class="cls-3" x="385.7" y="416.99" width="13.42" height="2.24"/><rect class="cls-3" x="405.82" y="416.99" width="14.53" height="2.24"/><rect class="cls-3" x="344.33" y="425.94" width="14.53" height="1.12"/><rect class="cls-3" x="364.46" y="425.94" width="14.53" height="1.12"/><rect class="cls-3" x="385.7" y="425.94" width="13.42" height="1.12"/><rect class="cls-3" x="405.82" y="425.94" width="14.53" height="1.12"/><path class="cls-4" d="M370.53,228.55c6.71,0,11.18,12.3,11.18,26.83s-4.47,26.83-11.18,26.83c-5.59,0-11.17-12.29-11.17-26.83s5.58-26.83,11.17-26.83" transform="translate(-57.5 -19.5)"/><path class="cls-7" d="M369.41,227.43l-2.24,1.12-2.23,2.24-2.23,3.35-1.12,3.35L360.48,242l-1.12,5.59V252l-1.12,3.35,1.12,2.24v5.59l1.12,5.59,1.11,3.35,1.12,4.47,2.23,3.36,2.23,2.23,2.24,1.12h2.24l3.35-1.12,2.24-2.23,1.11-3.36,2.24-4.47,1.12-3.35v-5.59l1.12-5.59V252l-1.12-4.47V242l-1.12-4.48-2.24-3.35-1.11-3.35L375,228.55l-3.35-1.12h-1.12m0,2.24h1.12l2.23,1.12L375,231.9l2.24,3.36,1.11,3.35,1.12,4.47,1.12,4.48v15.65l-1.12,4.47-1.12,4.47-1.11,3.36L375,278.86,373.88,280l-2.23,1.12h-2.24L368.29,280l-2.23-1.12-1.12-3.35-2.23-3.36-1.12-4.47v-4.47l-1.11-5.59V252l1.11-4.47v-4.48l1.12-4.47,2.23-3.35,1.12-3.36,2.23-1.11,1.12-1.12Z" transform="translate(-57.5 -19.5)"/></svg>